<svg width="512" height="512" viewBox="0 0 512 512" fill="none"
  xmlns="http://www.w3.org/2000/svg">
  <path d="M21.4 432.5H97.5C103.3 432.5 107.9 427.8 107.9 422.1V116C107.9 110.2 103.2 105.6 97.5 105.6H21.4C15.6 105.6 11 110.3 11 116V422.1C11 427.9 15.7 432.5 21.4 432.5Z" fill="white"/>
  <path d="M152.5 432.5H228.6C234.4 432.5 239 427.8 239 422.1V209.3C239 203.5 234.3 198.9 228.6 198.9H152.5C146.7 198.9 142.1 203.6 142.1 209.3V422.1C142 427.9 146.7 432.5 152.5 432.5Z" fill="white"/>
  <path d="M283.5 432.5H359.6C365.4 432.5 370 427.8 370 422.1V46.3C370 40.5 365.3 35.9 359.6 35.9H283.5C277.7 35.9 273.1 40.6 273.1 46.3V422.1C273.1 427.9 277.7 432.5 283.5 432.5Z" fill="white"/>
  <path d="M490.6 152.7H414.5C408.7 152.7 404.1 157.4 404.1 163.1V422.1C404.1 427.9 408.8 432.5 414.5 432.5H490.6C496.4 432.5 501 427.8 501 422.1V163.1C501 157.4 496.3 152.7 490.6 152.7Z" fill="white"/>
  <path d="M490.6 455.3H21.4C15.6 455.3 11 460 11 465.7C11 471.4 15.7 476.1 21.4 476.1H490.5C496.3 476.1 500.9 471.4 500.9 465.7C500.9 460 496.3 455.3 490.6 455.3Z" fill="white"/>
</svg>
  