<svg width="128" height="100" viewBox="0 0 128 100" fill="none" xmlns="http://www.w3.org/2000/svg">
<path fill-rule="evenodd" clip-rule="evenodd" d="M85.4099 85.3007C76.3574 94.381 63.8349 100 50 100C22.3858 100 0 77.6142 0 50C0 22.3858 22.3858 0 50 0C63.7794 0 76.2569 5.57396 85.3007 14.5901L62.6732 37.2176C59.4203 33.9923 54.9428 32 50 32C40.0589 32 32 40.0589 32 50C32 59.9411 40.0589 68 50 68C54.9983 68 59.5208 65.9627 62.7824 62.6732L85.4099 85.3007Z" fill="white"/>
<circle cx="50" cy="50" r="4" fill="white"/>
<circle cx="100" cy="50" r="4" fill="white"/>
<circle cx="75" cy="50" r="4" fill="white"/>
</svg>
